inDegrees=yes
name=t4_motion.mot
DataType=double
version=3
OpenSimVersion=4.4-2022-07-23-0e9fedc
endheader
time	pelvis_tilt	pelvis_list	pelvis_rotation	pelvis_tx	pelvis_ty	pelvis_tz	hip_flexion_r	hip_adduction_r	hip_rotation_r	knee_angle_r	knee_angle_r_beta	ankle_angle_r	subtalar_angle_r	mtp_angle_r	hip_flexion_l	hip_adduction_l	hip_rotation_l	knee_angle_l	knee_angle_l_beta	ankle_angle_l	subtalar_angle_l	mtp_angle_l	lumbar_extension	lumbar_bending	lumbar_rotation	arm_flex_r	arm_add_r	arm_rot_r	elbow_flex_r	pro_sup_r	wrist_flex_r	wrist_dev_r	arm_flex_l	arm_add_l	arm_rot_l	elbow_flex_l	pro_sup_l	wrist_flex_l	wrist_dev_l
5.013963937759399	0	0	0	0	0.93	0	42.46892498149502	3.595889382152686	3.50799255426439	1.8965682090365	0.03310135973633899	0	0	0	0	0	0	0	-2.79139173367542e-36	0	0	0	0	0	0	0	0	0	0	0	0	0	0	0	0	0	0	0	0
5.018957138061523	1.841694529429405e-11	8.076546991075544e-11	-1.479649882661157e-10	-1.579226580953586e-23	0.93	2.798459932142675e-23	43.11429049981368	3.548359607325223	3.422688351060065	2.499600615741303	0.04362626072969465	1.656479751676519e-13	4.043402614927673e-16	1.196476179834798e-16	4.01216738658573e-39	4.154021374544154e-22	-1.529017815905752e-40	6.845263412775643e-06	1.194723846639735e-07	5.758230964822015e-14	4.425917499114388e-17	6.717697474504958e-15	4.067079699959887e-23	-1.830821837942507e-21	3.853022747801602e-22	2.351957678119492e-13	7.833085112769417e-14	1.338515394641449e-14	6.84526291119764e-06	6.616663753462064e-06	7.596209245442966e-18	-2.310328666919992e-20	2.835548756922757e-14	4.572520255898886e-14	1.010037646619059e-13	6.885812013394233e-06	6.79135528145439e-06	-4.704534047141957e-22	-2.437913416606723e-21
5.022953987121582	-2.485641736650696e-12	-1.168711597533421e-12	-8.393064378281498e-14	-1.209659408970817e-34	0.93	-1.566359407079416e-34	43.10907272956668	3.609113598437775	3.479128591031378	1.881915776290711	0.03284562654147782	3.212022090654367e-14	1.188914632216041e-24	-7.279810105608512e-25	-9.636066625367158e-14	5.139235477137467e-14	1.490340424921145e-41	6.733886856340557e-07	1.175284970865355e-08	3.212022090342896e-14	6.608892936756373e-25	6.019721790573528e-25	-2.815390744231928e-36	6.855982584163799e-34	-1.445477980899169e-29	1.66656331742629e-23	1.070674082229738e-14	-1.511730271351164e-24	7.504222844075162e-07	6.733917479196716e-07	4.237078260639938e-27	-4.405059142654741e-14	1.90946761065507e-24	1.07067408240902e-14	5.202829627218401e-25	6.733851362846151e-07	6.733886745657698e-07	3.868142806163113e-29	-4.405059142652682e-14
5.026971817016602	0	0	0	0	0.93	0	44.57656603216119	3.384492538046415	3.326666667857114	3.244266637713673	0.05662313464070964	0	0	0	0	0	0	3.332285872430627e-46	-3.780358405954402e-47	0	0	0	0	0	0	0	0	0	4.508386768582613e-46	2.509015245124237e-45	0	0	0	0	0	4.508386768582613e-46	3.173366377885062e-46	0	0
5.033028125762939	0	0	0	0	0.93	0	44.57076215157731	3.433368575662219	3.374455169272602	2.705025724428778	0.04721160524242699	0	0	0	0	0	0	0	0	0	0	0	0	0	0	0	0	0	0	0	0	0	0	0	0	0	0	0	0
5.03998589515686	0	0	0	0	0.93	0	44.45521449001846	3.370058901986614	3.375695285578434	2.587086422783547	0.04515317611121493	0	0	0	0	0	0	1.010262977153814e-36	1.0469246562011e-38	0	0	0	0	0	0	0	0	0	0	6.735086514358763e-37	0	0	0	0	0	0	0	0	0
5.048965930938721	0	0	0	0	0.93	0	44.44967743910062	3.403706148633464	3.423550148149869	2.144275007402472	0.03742465894739892	0	0	0	0	0	0	0	0	0	0	0	0	0	0	0	0	0	0	0	0	0	0	0	0	0	0	0	0
5.055972099304199	-4.244711010762117e-28	-5.655184806574432e-18	-1.267165186099155e-26	1.248910569927519e-20	0.93	6.004226023976685e-20	44.43897042923513	3.435489271774609	3.427723181960264	1.696634724426001	0.02961186214490038	1.793146807539221e-15	-3.568533190264471e-15	-1.029744093584473e-15	-2.662978231716763e-26	2.650595911712673e-17	1.68197129897965e-33	0	-5.5492596043669e-17	-9.266991970083726e-16	-1.151247998915201e-15	-1.548247701703473e-16	1.390432574046617e-18	-2.201483151634537e-26	-5.779895331440684e-17	3.134705089494172e-25	-8.267601021201806e-24	-5.514621876016608e-17	0	0	-5.21093387219878e-18	-1.381087779905233e-17	-2.770061820337542e-16	-3.52066944077828e-16	-8.299584285298813e-17	0	0	-4.420434971246376e-18	2.989131487802823e-17
5.059982776641846	3.555967702612605e-27	-1.253705629853305e-15	8.771015365214235e-28	5.42665978686863e-16	0.93	1.418672009060681e-16	44.18229656636066	3.365798362755953	3.443436055710289	1.45849423308735	0.02545552648872388	-7.698587821303471e-14	1.683441975505994e-13	-3.422155486206956e-16	-1.476072042603588e-32	-4.005511222131183e-16	-4.781195094677394e-37	1.731739595462333e-05	3.022455773139297e-07	-2.7590882881885e-11	-4.587548633579219e-14	-6.426101349900323e-15	1.317771024395502e-15	8.135017086433619e-35	2.547948470831779e-18	-1.110526640624991e-12	7.065261885149444e-18	-1.88048687519308e-11	1.707387852742137e-05	1.731739622282481e-05	2.700823708766441e-13	-1.017814936032468e-14	9.536912785204333e-12	1.847407416058092e-11	9.250435900258534e-12	1.731739593357636e-05	1.731739634318892e-05	1.24093055203116e-13	4.806556324264373e-15
5.066973924636841	-2.15401326820929e-28	2.627271627645685e-11	-1.501368737289713e-27	2.038562367103219e-13	0.93	-3.328843205542252e-13	44.17133253148143	3.370694132856547	3.41355783972579	1.153448658768258	0.02013147684821866	-5.332459587137516e-16	2.636924697037729e-13	-2.165271330302629e-12	-1.167215963671248e-29	3.383317033083119e-13	-8.645067633557535e-30	1.134818672472834e-05	1.980632224949805e-07	-6.267014604510616e-16	1.823706195305379e-14	-4.069920141602176e-13	-8.173191183823048e-13	-1.25650327357692e-28	6.269790052523648e-12	-3.352054352817946e-14	2.426202008601708e-22	-2.447835272647743e-16	1.095744375548594e-05	1.095797792749285e-05	-2.398318381069186e-10	6.75741344936981e-13	1.980252681678628e-18	-2.769793755820803e-16	-2.253844028097796e-16	1.095738366319282e-05	1.095568718086115e-05	7.259934278809167e-11	-5.150856236006266e-12
5.07098913192749	0	0	0	0	0.93	0	43.35051269206222	3.209388026710233	3.476581485882314	0.4585902448110579	0.008003909689479801	0	0	0	0	0	0	0	0	0	0	0	0	0	0	0	0	0	0	0	0	0	0	0	0	0	0	0	0
5.075955867767334	-7.366612077480963e-12	5.065236144323526e-11	1.067668830867285e-11	2.816709358514395e-20	0.93	8.398632086108787e-20	43.37963247278292	3.206314622439519	3.432065564448961	0.32991294545152	0.005758067143275708	4.899765603455389e-23	-5.051488508100624e-23	-5.627712626674171e-20	-7.572194410488296e-23	-1.829953692590036e-18	0	7.812689348628458e-06	1.363571526080539e-07	8.145238529819115e-23	-3.625041047985004e-23	-1.034649804627562e-20	-3.992913911243779e-19	0	4.861792817462074e-22	-2.08657144917396e-23	8.413555118013099e-24	5.511309552657196e-24	7.812689253650764e-06	7.685513211700335e-06	-8.797449747074124e-15	1.04576289081237e-18	2.252516789871107e-23	5.696510748278917e-23	1.116985289453464e-23	7.820440067652718e-06	7.76671835141734e-06	4.760161144158859e-17	1.259233023092987e-18
5.0799720287323	0	0	0	0	0.93	0	41.34193945698686	2.493791326693083	3.561370567565953	0.03117629052102471	0.0005441289181501796	0	0	0	0	0	0	0	0	0	0	0	0	0	0	0	0	0	0	0	0	0	0	0	0	0	0	0	0
5.083966970443726	3.590609322534943e-32	-3.477441563410474e-22	-2.27040305205955e-30	-7.264467382291331e-24	0.93	1.591628382960371e-23	41.39665051847694	2.522645214084189	3.458981207575231	0.02984328657569509	0.0005208636103621033	2.292742144338548e-19	1.027816680822004e-19	4.652253283284824e-23	-1.190137371715924e-36	1.570715767203804e-24	0	0	-3.165910882077882e-18	5.524577889268654e-18	5.80419779758499e-24	1.249934646566895e-23	4.926971262494802e-24	0	-4.558560424256126e-24	-5.976020668085172e-27	-7.679870859548823e-23	-1.684611112736739e-20	0	0	8.892080340108315e-24	-2.197510499971846e-24	-2.00764665713614e-19	1.103496805497394e-18	-2.593329497068325e-20	0	0	2.418862401367683e-24	-1.179786584585762e-24
5.08796501159668	1.606663310266977e-35	-7.14163106851507e-35	0	0	0.93	-1.991364888915565e-58	40.83239427963206	2.468186637778813	3.459520544145014	0.02342072644380369	0.0004087687896532771	-2.103032284054731e-53	-2.628790355068414e-54	-1.711452054080999e-57	-5.100524586680527e-65	1.069657533800624e-58	0	5.145441420664938e-46	2.736911063134408e-48	9.34681015135436e-53	1.649055364609295e-58	0	1.782762556334374e-59	0	-8.913812781671868e-59	0	-1.996694063094498e-57	-2.190658629223678e-55	0	0	0	-1.604486300700936e-58	1.635691776487013e-53	3.271383552974026e-53	1.168351268919295e-54	0	0	0	-3.565525112668747e-59
